<svg width="93" height="11" viewBox="0 0 93 11" fill="none" xmlns="http://www.w3.org/2000/svg">
<g opacity="0.3">
<path d="M4.88 4.876C5.54267 4.99733 6.07467 5.23533 6.476 5.59C6.88667 5.94467 7.092 6.486 7.092 7.214C7.092 8.222 6.73733 8.94067 6.028 9.37C5.31867 9.79 4.32467 10 3.046 10H0.134V0.325999H2.668C5.33733 0.325999 6.672 1.14733 6.672 2.79C6.672 3.35933 6.49933 3.826 6.154 4.19C5.80867 4.54467 5.384 4.77333 4.88 4.876ZM1.982 1.684V4.302H3.116C3.62933 4.302 4.03533 4.19 4.334 3.966C4.63267 3.73267 4.782 3.392 4.782 2.944C4.782 2.47733 4.62333 2.15067 4.306 1.964C3.998 1.77733 3.51267 1.684 2.85 1.684H1.982ZM3.06 8.614C3.74133 8.614 4.25933 8.51133 4.614 8.306C4.978 8.10067 5.16 7.71333 5.16 7.144C5.16 6.59333 4.98733 6.19667 4.642 5.954C4.306 5.71133 3.844 5.59 3.256 5.59H1.982V8.614H3.06ZM15.7439 6.122H14.5679V10H12.7199V0.325999H15.6039C18.1613 0.325999 19.4399 1.27333 19.4399 3.168C19.4399 3.812 19.2813 4.344 18.9639 4.764C18.6466 5.184 18.1519 5.52467 17.4799 5.786L20.0139 10H17.8859L15.7439 6.122ZM14.5679 4.792H15.7159C16.3039 4.792 16.7473 4.666 17.0459 4.414C17.3539 4.15267 17.5079 3.73733 17.5079 3.168C17.5079 2.64533 17.3493 2.26733 17.0319 2.034C16.7239 1.79133 16.2339 1.67 15.5619 1.67H14.5679V4.792ZM30.4025 10L29.8005 7.76H26.5945L25.9925 10H24.0745L27.0845 0.325999H29.3665L32.3625 10H30.4025ZM26.9585 6.36H29.4225L28.1905 1.74L26.9585 6.36ZM44.5806 10H42.1866L38.8686 2.174C38.9526 2.86467 39.0133 3.49 39.0506 4.05C39.0973 4.61 39.1206 5.27733 39.1206 6.052V10H37.4406V0.325999H39.7786L43.1526 8.166C43.0966 7.79267 43.0406 7.30267 42.9846 6.696C42.9286 6.08 42.9006 5.46867 42.9006 4.862V0.325999H44.5806V10ZM53.2269 0.325999C54.7296 0.325999 55.9289 0.666666 56.8249 1.348C57.7302 2.02933 58.1829 3.28467 58.1829 5.114C58.1829 6.906 57.7396 8.17067 56.8529 8.908C55.9662 9.636 54.8416 10 53.4789 10H50.8469V0.325999H53.2269ZM52.6949 1.712V8.614H53.6049C54.4262 8.614 55.0702 8.362 55.5369 7.858C56.0036 7.34467 56.2369 6.43 56.2369 5.114C56.2369 4.19933 56.1156 3.49467 55.8729 3C55.6396 2.496 55.3269 2.15533 54.9349 1.978C54.5522 1.80067 54.0902 1.712 53.5489 1.712H52.6949ZM65.773 0.325999V10H63.925V0.325999H65.773ZM79.1803 10H76.7863L73.4683 2.174C73.5523 2.86467 73.6129 3.49 73.6503 4.05C73.6969 4.61 73.7203 5.27733 73.7203 6.052V10H72.0403V0.325999H74.3783L77.7523 8.166C77.6963 7.79267 77.6403 7.30267 77.5843 6.696C77.5283 6.08 77.5003 5.46867 77.5003 4.862V0.325999H79.1803V10ZM89.3525 0.116C89.9872 0.116 90.5472 0.213999 91.0325 0.409999C91.5272 0.596666 91.9938 0.876666 92.4325 1.25L91.4385 2.286C91.0932 2.01533 90.7665 1.81933 90.4585 1.698C90.1598 1.57667 89.8098 1.516 89.4085 1.516C88.6618 1.516 88.0505 1.81467 87.5745 2.412C87.0985 3.00933 86.8605 3.924 86.8605 5.156C86.8605 6.444 87.0472 7.37267 87.4205 7.942C87.8032 8.51133 88.3818 8.796 89.1565 8.796C89.7445 8.796 90.2578 8.67 90.6965 8.418V5.898H89.2405L89.0445 4.526H92.5165V9.258C91.4712 9.89267 90.3605 10.21 89.1845 10.21C87.8032 10.21 86.7438 9.78067 86.0065 8.922C85.2785 8.06333 84.9145 6.808 84.9145 5.156C84.9145 4.10133 85.1105 3.196 85.5025 2.44C85.9038 1.67467 86.4405 1.096 87.1125 0.704C87.7845 0.312 88.5312 0.116 89.3525 0.116Z" fill="#222222"/>
<path d="M4.88 4.876L4.6804 3.89612L4.6999 5.85965L4.88 4.876ZM6.476 5.59L5.81376 6.33938L5.82238 6.34682L6.476 5.59ZM6.028 9.37L6.53752 10.2305L6.5458 10.2255L6.028 9.37ZM0.134 10H-0.866V11H0.134V10ZM0.134 0.325999V-0.674001H-0.866V0.325999H0.134ZM6.154 4.19L6.87053 4.88767L6.87946 4.87826L6.154 4.19ZM1.982 1.684V0.683999H0.982V1.684H1.982ZM1.982 4.302H0.982V5.302H1.982V4.302ZM4.334 3.966L4.934 4.766L4.94188 4.76009L4.94964 4.75402L4.334 3.966ZM4.306 1.964L3.78765 2.81927L3.79898 2.82593L4.306 1.964ZM4.614 8.306L4.12265 7.43497L4.11296 7.44057L4.614 8.306ZM4.642 5.954L4.05646 6.76475L4.06705 6.77219L4.642 5.954ZM1.982 5.59V4.59H0.982V5.59H1.982ZM1.982 8.614H0.982V9.614H1.982V8.614ZM4.6999 5.85965C5.22923 5.95657 5.5799 6.13262 5.8138 6.33933L7.1382 4.84067C6.56944 4.33804 5.85611 4.0381 5.0601 3.89235L4.6999 5.85965ZM5.82238 6.34682C5.94455 6.45233 6.092 6.67181 6.092 7.214H8.092C8.092 6.30019 7.82879 5.437 7.12962 4.83318L5.82238 6.34682ZM6.092 7.214C6.092 7.96005 5.85195 8.30765 5.5102 8.5145L6.5458 10.2255C7.62272 9.57368 8.092 8.48395 8.092 7.214H6.092ZM5.51851 8.50952C5.0261 8.80108 4.23585 9 3.046 9V11C4.41348 11 5.61124 10.7789 6.53749 10.2305L5.51851 8.50952ZM3.046 9H0.134V11H3.046V9ZM1.134 10V0.325999H-0.866V10H1.134ZM0.134 1.326H2.668V-0.674001H0.134V1.326ZM2.668 1.326C3.93259 1.326 4.71259 1.52639 5.1469 1.79366C5.50159 2.01193 5.672 2.29561 5.672 2.79H7.672C7.672 1.64172 7.17508 0.693407 6.1951 0.090341C5.29475 -0.463722 4.07274 -0.674001 2.668 -0.674001V1.326ZM5.672 2.79C5.672 3.14048 5.57352 3.34892 5.42854 3.50174L6.87946 4.87826C7.42514 4.30308 7.672 3.57819 7.672 2.79H5.672ZM5.43753 3.49238C5.23793 3.69737 4.99583 3.83187 4.6804 3.89612L5.0796 5.85588C5.77218 5.7148 6.3794 5.39196 6.87047 4.88762L5.43753 3.49238ZM0.982 1.684V4.302H2.982V1.684H0.982ZM1.982 5.302H3.116V3.302H1.982V5.302ZM3.116 5.302C3.76601 5.302 4.4078 5.16065 4.934 4.766L3.734 3.166C3.66286 3.21935 3.49266 3.302 3.116 3.302V5.302ZM4.94964 4.75402C5.53644 4.29559 5.782 3.637 5.782 2.944H3.782C3.782 3.05749 3.76318 3.11338 3.75413 3.13402C3.74728 3.14966 3.73972 3.16129 3.71836 3.17798L4.94964 4.75402ZM5.782 2.944C5.782 2.23248 5.51968 1.51775 4.81302 1.10207L3.79898 2.82593C3.7993 2.82613 3.79728 2.82495 3.79367 2.82207C3.79003 2.81916 3.78562 2.81519 3.78098 2.81019C3.77089 2.79931 3.76531 2.78965 3.76349 2.7859C3.76062 2.77999 3.782 2.82035 3.782 2.944H5.782ZM4.8243 1.1088C4.27691 0.777048 3.56458 0.683999 2.85 0.683999V2.684C3.46075 2.684 3.71909 2.77762 3.7877 2.8192L4.8243 1.1088ZM2.85 0.683999H1.982V2.684H2.85V0.683999ZM3.06 9.614C3.81377 9.614 4.53833 9.50531 5.11504 9.17143L4.11296 7.44057C3.98034 7.51736 3.6689 7.614 3.06 7.614V9.614ZM5.10532 9.17698C5.8944 8.73186 6.16 7.92588 6.16 7.144H4.16C4.16 7.32793 4.12984 7.41195 4.11843 7.43623C4.11358 7.44656 4.11242 7.44572 4.11741 7.44032C4.12255 7.43474 4.12611 7.43308 4.12268 7.43502L5.10532 9.17698ZM6.16 7.144C6.16 6.37741 5.90741 5.621 5.21695 5.13581L4.06705 6.77219C4.0855 6.78515 4.09867 6.79831 4.1136 6.83262C4.13235 6.8757 4.16 6.96993 4.16 7.144H6.16ZM5.22749 5.14332C4.66308 4.73569 3.96912 4.59 3.256 4.59V6.59C3.71888 6.59 3.94892 6.68698 4.05651 6.76468L5.22749 5.14332ZM3.256 4.59H1.982V6.59H3.256V4.59ZM0.982 5.59V8.614H2.982V5.59H0.982ZM1.982 9.614H3.06V7.614H1.982V9.614ZM15.7439 6.122L16.6193 5.6385L16.334 5.122H15.7439V6.122ZM14.5679 6.122V5.122H13.5679V6.122H14.5679ZM14.5679 10V11H15.5679V10H14.5679ZM12.7199 10H11.7199V11H12.7199V10ZM12.7199 0.325999V-0.674001H11.7199V0.325999H12.7199ZM18.9639 4.764L18.1661 4.16117L18.1661 4.16117L18.9639 4.764ZM17.4799 5.786L17.1175 4.85399L16.0113 5.28418L16.6229 6.30133L17.4799 5.786ZM20.0139 10V11H21.7821L20.8709 9.48467L20.0139 10ZM17.8859 10L17.0106 10.4835L17.2959 11H17.8859V10ZM14.5679 4.792H13.5679V5.792H14.5679V4.792ZM17.0459 4.414L17.6908 5.17829L17.6929 5.17651L17.0459 4.414ZM17.0319 2.034L16.4131 2.81949L16.4261 2.82979L16.4395 2.83965L17.0319 2.034ZM14.5679 1.67V0.67H13.5679V1.67H14.5679ZM15.7439 5.122H14.5679V7.122H15.7439V5.122ZM13.5679 6.122V10H15.5679V6.122H13.5679ZM14.5679 9H12.7199V11H14.5679V9ZM13.7199 10V0.325999H11.7199V10H13.7199ZM12.7199 1.326H15.6039V-0.674001H12.7199V1.326ZM15.6039 1.326C16.7883 1.326 17.495 1.55055 17.8856 1.84C18.2202 2.08785 18.4399 2.46929 18.4399 3.168H20.4399C20.4399 1.97205 20.0204 0.932481 19.0762 0.232994C18.1883 -0.424888 16.9769 -0.674001 15.6039 -0.674001V1.326ZM18.4399 3.168C18.4399 3.64414 18.3251 3.95065 18.1661 4.16117L19.7618 5.36683C20.2374 4.73735 20.4399 3.97985 20.4399 3.168H18.4399ZM18.1661 4.16117C17.9946 4.3881 17.6782 4.63594 17.1175 4.85399L17.8424 6.718C18.6257 6.41339 19.2986 5.9799 19.7618 5.36683L18.1661 4.16117ZM16.6229 6.30133L19.1569 10.5153L20.8709 9.48467L18.3369 5.27067L16.6229 6.30133ZM20.0139 9H17.8859V11H20.0139V9ZM18.7613 9.51651L16.6193 5.6385L14.8686 6.60549L17.0106 10.4835L18.7613 9.51651ZM14.5679 5.792H15.7159V3.792H14.5679V5.792ZM15.7159 5.792C16.4252 5.792 17.1401 5.64298 17.6908 5.17829L16.4011 3.64971C16.3545 3.68902 16.1827 3.792 15.7159 3.792V5.792ZM17.6929 5.17651C18.3053 4.65694 18.5079 3.90598 18.5079 3.168H16.5079C16.5079 3.56869 16.4026 3.6484 16.399 3.65149L17.6929 5.17651ZM18.5079 3.168C18.5079 2.44063 18.2773 1.70848 17.6243 1.22835L16.4395 2.83965C16.4464 2.84468 16.4546 2.85021 16.4669 2.87954C16.4827 2.91732 16.5079 3.00449 16.5079 3.168H18.5079ZM17.6508 1.24851C17.079 0.798007 16.3135 0.67 15.5619 0.67V2.67C16.1544 2.67 16.3689 2.78466 16.4131 2.81949L17.6508 1.24851ZM15.5619 0.67H14.5679V2.67H15.5619V0.67ZM13.5679 1.67V4.792H15.5679V1.67H13.5679ZM30.4025 10L29.4368 10.2595L29.6358 11H30.4025V10ZM29.8005 7.76L30.7663 7.50046L30.5673 6.76H29.8005V7.76ZM26.5945 7.76V6.76H25.8278L25.6288 7.50046L26.5945 7.76ZM25.9925 10V11H26.7593L26.9583 10.2595L25.9925 10ZM24.0745 10L23.1197 9.70291L22.7161 11H24.0745V10ZM27.0845 0.325999V-0.674001H26.3484L26.1297 0.0289048L27.0845 0.325999ZM29.3665 0.325999L30.3218 0.0301655L30.1037 -0.674001H29.3665V0.325999ZM32.3625 10V11H33.7191L33.3178 9.70417L32.3625 10ZM26.9585 6.36L25.9923 6.10234L25.6569 7.36H26.9585V6.36ZM29.4225 6.36V7.36H30.7241L30.3888 6.10234L29.4225 6.36ZM28.1905 1.74L29.1568 1.48234L28.1905 -2.14104L27.2243 1.48234L28.1905 1.74ZM31.3683 9.74046L30.7663 7.50046L28.8348 8.01954L29.4368 10.2595L31.3683 9.74046ZM29.8005 6.76H26.5945V8.76H29.8005V6.76ZM25.6288 7.50046L25.0268 9.74046L26.9583 10.2595L27.5603 8.01954L25.6288 7.50046ZM25.9925 9H24.0745V11H25.9925V9ZM25.0294 10.2971L28.0394 0.623094L26.1297 0.0289048L23.1197 9.70291L25.0294 10.2971ZM27.0845 1.326H29.3665V-0.674001H27.0845V1.326ZM28.4113 0.621833L31.4073 10.2958L33.3178 9.70417L30.3218 0.0301655L28.4113 0.621833ZM32.3625 9H30.4025V11H32.3625V9ZM26.9585 7.36H29.4225V5.36H26.9585V7.36ZM30.3888 6.10234L29.1568 1.48234L27.2243 1.99766L28.4563 6.61766L30.3888 6.10234ZM27.2243 1.48234L25.9923 6.10234L27.9248 6.61766L29.1568 1.99766L27.2243 1.48234ZM44.5806 10V11H45.5806V10H44.5806ZM42.1866 10L41.266 10.3903L41.5244 11H42.1866V10ZM38.8686 2.174L39.7893 1.78366L37.876 2.29473L38.8686 2.174ZM39.0506 4.05L38.0529 4.11652L38.0534 4.12479L38.0541 4.13305L39.0506 4.05ZM39.1206 10V11H40.1206V10H39.1206ZM37.4406 10H36.4406V11H37.4406V10ZM37.4406 0.325999V-0.674001H36.4406V0.325999H37.4406ZM39.7786 0.325999L40.6972 -0.0693052L40.437 -0.674001H39.7786V0.325999ZM43.1526 8.166L42.2341 8.5613L44.1416 8.01766L43.1526 8.166ZM42.9846 6.696L41.9887 6.78654L41.9889 6.78792L42.9846 6.696ZM42.9006 0.325999V-0.674001H41.9006V0.325999H42.9006ZM44.5806 0.325999H45.5806V-0.674001H44.5806V0.325999ZM44.5806 9H42.1866V11H44.5806V9ZM43.1073 9.60966L39.7893 1.78366L37.948 2.56434L41.266 10.3903L43.1073 9.60966ZM37.876 2.29473C37.9583 2.97144 38.017 3.5783 38.0529 4.11652L40.0484 3.98348C40.0096 3.4017 39.947 2.75789 39.8613 2.05327L37.876 2.29473ZM38.0541 4.13305C38.0978 4.65732 38.1206 5.29551 38.1206 6.052H40.1206C40.1206 5.25915 40.0968 4.56268 40.0472 3.96695L38.0541 4.13305ZM38.1206 6.052V10H40.1206V6.052H38.1206ZM39.1206 9H37.4406V11H39.1206V9ZM38.4406 10V0.325999H36.4406V10H38.4406ZM37.4406 1.326H39.7786V-0.674001H37.4406V1.326ZM38.8601 0.721304L42.2341 8.5613L44.0712 7.7707L40.6972 -0.0693052L38.8601 0.721304ZM44.1416 8.01766C44.0896 7.67084 44.0356 7.20179 43.9804 6.60408L41.9889 6.78792C42.0457 7.40354 42.1037 7.91449 42.1637 8.31434L44.1416 8.01766ZM43.9805 6.60546C43.9272 6.01898 43.9006 5.43786 43.9006 4.862H41.9006C41.9006 5.49948 41.9301 6.14102 41.9887 6.78654L43.9805 6.60546ZM43.9006 4.862V0.325999H41.9006V4.862H43.9006ZM42.9006 1.326H44.5806V-0.674001H42.9006V1.326ZM43.5806 0.325999V10H45.5806V0.325999H43.5806ZM56.8249 1.348L56.2196 2.14401L56.2236 2.14701L56.8249 1.348ZM56.8529 8.908L57.4875 9.68088L57.4923 9.67688L56.8529 8.908ZM50.8469 10H49.8469V11H50.8469V10ZM50.8469 0.325999V-0.674001H49.8469V0.325999H50.8469ZM52.6949 1.712V0.712H51.6949V1.712H52.6949ZM52.6949 8.614H51.6949V9.614H52.6949V8.614ZM55.5369 7.858L56.2707 8.53744L56.2768 8.53067L55.5369 7.858ZM55.8729 3L54.9654 3.42012L54.9701 3.43033L54.9751 3.44043L55.8729 3ZM54.9349 1.978L54.5144 2.88535L54.5227 2.88911L54.9349 1.978ZM53.2269 1.326C54.5837 1.326 55.5478 1.63319 56.2196 2.144L57.4302 0.551997C56.3099 -0.299857 54.8754 -0.674001 53.2269 -0.674001V1.326ZM56.2236 2.14701C56.7554 2.54728 57.1829 3.40496 57.1829 5.114H59.1829C59.1829 3.16438 58.705 1.51139 57.4262 0.548989L56.2236 2.14701ZM57.1829 5.114C57.1829 6.77403 56.7695 7.67676 56.2135 8.13912L57.4923 9.67688C58.7096 8.66457 59.1829 7.03797 59.1829 5.114H57.1829ZM56.2183 8.13513C55.5427 8.68986 54.6555 9 53.4789 9V11C55.0276 11 56.3898 10.5821 57.4875 9.68087L56.2183 8.13513ZM53.4789 9H50.8469V11H53.4789V9ZM51.8469 10V0.325999H49.8469V10H51.8469ZM50.8469 1.326H53.2269V-0.674001H50.8469V1.326ZM51.6949 1.712V8.614H53.6949V1.712H51.6949ZM52.6949 9.614H53.6049V7.614H52.6949V9.614ZM53.6049 9.614C54.6456 9.614 55.578 9.28551 56.2707 8.53741L54.8031 7.17859C54.5625 7.43849 54.2068 7.614 53.6049 7.614V9.614ZM56.2768 8.53067C57.0075 7.72695 57.2369 6.48266 57.2369 5.114H55.2369C55.2369 6.37734 54.9996 6.96239 54.797 7.18533L56.2768 8.53067ZM57.2369 5.114C57.2369 4.13509 57.111 3.25321 56.7707 2.55957L54.9751 3.44043C55.1202 3.73612 55.2369 4.26357 55.2369 5.114H57.2369ZM56.7804 2.57988C56.4762 1.92287 56.015 1.36906 55.3471 1.06689L54.5227 2.88911C54.6388 2.94161 54.8029 3.06913 54.9654 3.42012L56.7804 2.57988ZM55.3554 1.07069C54.8091 0.817564 54.1958 0.712 53.5489 0.712V2.712C53.9847 2.712 54.2953 2.78377 54.5144 2.88531L55.3554 1.07069ZM53.5489 0.712H52.6949V2.712H53.5489V0.712ZM65.773 0.325999H66.773V-0.674001H65.773V0.325999ZM65.773 10V11H66.773V10H65.773ZM63.925 10H62.925V11H63.925V10ZM63.925 0.325999V-0.674001H62.925V0.325999H63.925ZM64.773 0.325999V10H66.773V0.325999H64.773ZM65.773 9H63.925V11H65.773V9ZM64.925 10V0.325999H62.925V10H64.925ZM63.925 1.326H65.773V-0.674001H63.925V1.326ZM79.1803 10V11H80.1803V10H79.1803ZM76.7863 10L75.8656 10.3903L76.1241 11H76.7863V10ZM73.4683 2.174L74.3889 1.78366L72.4756 2.29473L73.4683 2.174ZM73.6503 4.05L72.6525 4.11652L72.653 4.12479L72.6537 4.13305L73.6503 4.05ZM73.7203 10V11H74.7203V10H73.7203ZM72.0403 10H71.0403V11H72.0403V10ZM72.0403 0.325999V-0.674001H71.0403V0.325999H72.0403ZM74.3783 0.325999L75.2968 -0.0693052L75.0366 -0.674001H74.3783V0.325999ZM77.7523 8.166L76.8337 8.5613L78.7412 8.01766L77.7523 8.166ZM77.5843 6.696L76.5884 6.78654L76.5885 6.78792L77.5843 6.696ZM77.5003 0.325999V-0.674001H76.5003V0.325999H77.5003ZM79.1803 0.325999H80.1803V-0.674001H79.1803V0.325999ZM79.1803 9H76.7863V11H79.1803V9ZM77.7069 9.60966L74.3889 1.78366L72.5476 2.56434L75.8656 10.3903L77.7069 9.60966ZM72.4756 2.29473C72.5579 2.97144 72.6166 3.5783 72.6525 4.11652L74.648 3.98348C74.6092 3.4017 74.5466 2.75789 74.4609 2.05327L72.4756 2.29473ZM72.6537 4.13305C72.6974 4.65732 72.7203 5.29551 72.7203 6.052H74.7203C74.7203 5.25915 74.6964 4.56268 74.6468 3.96695L72.6537 4.13305ZM72.7203 6.052V10H74.7203V6.052H72.7203ZM73.7203 9H72.0403V11H73.7203V9ZM73.0403 10V0.325999H71.0403V10H73.0403ZM72.0403 1.326H74.3783V-0.674001H72.0403V1.326ZM73.4597 0.721304L76.8337 8.5613L78.6708 7.7707L75.2968 -0.0693052L73.4597 0.721304ZM78.7412 8.01766C78.6892 7.67084 78.6352 7.20179 78.58 6.60408L76.5885 6.78792C76.6453 7.40354 76.7033 7.91449 76.7633 8.31434L78.7412 8.01766ZM78.5801 6.60546C78.5268 6.01898 78.5003 5.43786 78.5003 4.862H76.5003C76.5003 5.49948 76.5297 6.14102 76.5884 6.78654L78.5801 6.60546ZM78.5003 4.862V0.325999H76.5003V4.862H78.5003ZM77.5003 1.326H79.1803V-0.674001H77.5003V1.326ZM78.1803 0.325999V10H80.1803V0.325999H78.1803ZM91.0325 0.409999L90.658 1.33724L90.6687 1.34154L90.6794 1.3456L91.0325 0.409999ZM92.4325 1.25L93.1541 1.94233L93.889 1.17641L93.0806 0.488461L92.4325 1.25ZM91.4385 2.286L90.8216 3.07306L91.5337 3.63118L92.1601 2.97833L91.4385 2.286ZM90.4585 1.698L90.0821 2.62452L90.092 2.62841L90.4585 1.698ZM87.5745 2.412L86.7924 1.7888L86.7924 1.7888L87.5745 2.412ZM87.4205 7.942L86.5842 8.49039L86.5905 8.49984L87.4205 7.942ZM90.6965 8.418L91.1946 9.28511L91.6965 8.99679V8.418H90.6965ZM90.6965 5.898H91.6965V4.898H90.6965V5.898ZM89.2405 5.898L88.2506 6.03942L88.3732 6.898H89.2405V5.898ZM89.0445 4.526V3.526H87.8915L88.0546 4.66742L89.0445 4.526ZM92.5165 4.526H93.5165V3.526H92.5165V4.526ZM92.5165 9.258L93.0355 10.1128L93.5165 9.82074V9.258H92.5165ZM86.0065 8.922L85.2437 9.5687L85.2478 9.57347L86.0065 8.922ZM85.5025 2.44L84.6169 1.97558L84.6147 1.97968L85.5025 2.44ZM87.1125 0.704L86.6086 -0.159779L86.6086 -0.159779L87.1125 0.704ZM89.3525 1.116C89.8854 1.116 90.3141 1.19833 90.658 1.33724L91.407 -0.517243C90.7803 -0.770335 90.0889 -0.884 89.3525 -0.884V1.116ZM90.6794 1.3456C91.0573 1.48817 91.4255 1.7061 91.7844 2.01154L93.0806 0.488461C92.5622 0.0472364 91.9971 -0.294838 91.3856 -0.525602L90.6794 1.3456ZM91.7109 0.557671L90.7169 1.59367L92.1601 2.97833L93.1541 1.94233L91.7109 0.557671ZM92.0554 1.49894C91.6571 1.18678 91.2467 0.933724 90.825 0.767591L90.092 2.62841C90.2863 2.70494 90.5292 2.84388 90.8216 3.07306L92.0554 1.49894ZM90.8349 0.771532C90.3913 0.591334 89.9083 0.516 89.4085 0.516V2.516C89.7113 2.516 89.9284 2.562 90.0821 2.62447L90.8349 0.771532ZM89.4085 0.516C88.3493 0.516 87.4531 0.959722 86.7924 1.7888L88.3566 3.0352C88.6479 2.66961 88.9743 2.516 89.4085 2.516V0.516ZM86.7924 1.7888C86.1118 2.64295 85.8605 3.8266 85.8605 5.156H87.8605C87.8605 4.0214 88.0852 3.37572 88.3566 3.0352L86.7924 1.7888ZM85.8605 5.156C85.8605 6.49159 86.0449 7.6678 86.5843 8.49036L88.2567 7.39364C88.0495 7.07754 87.8605 6.39641 87.8605 5.156H85.8605ZM86.5905 8.49984C87.1854 9.38486 88.0991 9.796 89.1565 9.796V7.796C88.6645 7.796 88.4209 7.6378 88.2505 7.38416L86.5905 8.49984ZM89.1565 9.796C89.8906 9.796 90.5813 9.63742 91.1946 9.28511L90.1984 7.55089C89.9343 7.70258 89.5984 7.796 89.1565 7.796V9.796ZM91.6965 8.418V5.898H89.6965V8.418H91.6965ZM90.6965 4.898H89.2405V6.898H90.6965V4.898ZM90.2304 5.75658L90.0344 4.38458L88.0546 4.66742L88.2506 6.03942L90.2304 5.75658ZM89.0445 5.526H92.5165V3.526H89.0445V5.526ZM91.5165 4.526V9.258H93.5165V4.526H91.5165ZM91.9975 8.40321C91.1021 8.94687 90.17 9.21 89.1845 9.21V11.21C90.551 11.21 91.8402 10.8385 93.0355 10.1128L91.9975 8.40321ZM89.1845 9.21C88.0246 9.21 87.2711 8.85975 86.7652 8.27053L85.2478 9.57347C86.2165 10.7016 87.5817 11.21 89.1845 11.21V9.21ZM86.7693 8.27531C86.2521 7.66532 85.9145 6.67893 85.9145 5.156H83.9145C83.9145 6.93706 84.3049 8.46135 85.2437 9.56869L86.7693 8.27531ZM85.9145 5.156C85.9145 4.22401 86.0875 3.48413 86.3903 2.90032L84.6147 1.97968C84.1335 2.90787 83.9145 3.97866 83.9145 5.156H85.9145ZM86.3881 2.90441C86.7122 2.28639 87.1242 1.85488 87.6164 1.56778L86.6086 -0.159779C85.7568 0.337122 85.0955 1.06295 84.6169 1.97559L86.3881 2.90441ZM87.6164 1.56778C88.1268 1.27002 88.698 1.116 89.3525 1.116V-0.884C88.3644 -0.884 87.4422 -0.646023 86.6086 -0.159779L87.6164 1.56778Z" fill="black"/>
</g>
</svg>
