<svg width="54" height="58" viewBox="0 0 54 58" fill="none" xmlns="http://www.w3.org/2000/svg">
<rect width="54" height="54" rx="27" fill="#E5E5E5"/>
<path d="M18 26L23 22C23 22 18 32.5 18 36" stroke="#1434E1" stroke-width="2" stroke-linecap="round" stroke-linejoin="round"/>
<path d="M27.4359 22C25.9359 22.5 24.9359 25 24.4359 27C23.9359 29 23.3441 32 25.9359 32C29.5276 32 29.0277 24 29.0277 24" stroke="#1434E1" stroke-width="2" stroke-linecap="round"/>
<path d="M34.4359 22C32.9359 22.5 31.9359 25 31.4359 27C30.9359 29 30.3441 32 32.9359 32C36.5276 32 36.0277 24 36.0277 24" stroke="#1434E1" stroke-width="2" stroke-linecap="round"/>
<path d="M22 36C22 36 27 34 33 35" stroke="#1434E1" stroke-width="2" stroke-linecap="round"/>
<path d="M34 38C25.5 37.102 19 40 19 40" stroke="#1434E1" stroke-width="2" stroke-linecap="round" stroke-linejoin="round"/>
</svg>
